<svg width="25" height="24" viewBox="0 0 25 24" fill="none" xmlns="http://www.w3.org/2000/svg">
<g clip-path="url(#clip0_41_151)">
<path d="M21 4V16H9V4H21ZM21 2H9C7.9 2 7 2.9 7 4V16C7 17.1 7.9 18 9 18H21C22.1 18 23 17.1 23 16V4C23 2.9 22.1 2 21 2ZM13.47 14L10 10.5L11.4 9.09L13.47 11.17L18.6 6L20 7.41L13.47 14ZM5 6H3V20C3 21.1 3.9 22 5 22H19V20H5V6Z" fill="#4C5866"/>
</g>
<defs>
<clipPath id="clip0_41_151">
<rect width="24" height="24" fill="white" transform="translate(0.666687)"/>
</clipPath>
</defs>
</svg>
