<svg width="200" height="45" viewBox="0 0 200 45" fill="none" xmlns="http://www.w3.org/2000/svg">
<circle cx="8.5" cy="21.5" r="8" stroke="#4C5866"/>
<path d="M29.8705 17.8C28.9772 17.8 28.1439 17.64 27.3705 17.32C26.6105 17 25.9439 16.5333 25.3705 15.92C24.8105 15.3067 24.3639 14.5533 24.0305 13.66C23.7105 12.7533 23.5505 11.72 23.5505 10.56C23.5505 9.4 23.7239 8.37333 24.0705 7.48C24.4305 6.57333 24.9039 5.81333 25.4905 5.2C26.0772 4.58667 26.7572 4.12667 27.5305 3.82C28.3039 3.5 29.1105 3.34 29.9505 3.34C30.4705 3.34 30.9439 3.37333 31.3705 3.44C31.7972 3.50667 32.1705 3.59333 32.4905 3.7C32.8105 3.79333 33.0839 3.89333 33.3105 4C33.5372 4.09333 33.7105 4.18 33.8305 4.26L33.3905 5.44C33.0572 5.24 32.6305 5.04667 32.1105 4.86C31.6039 4.66 30.9705 4.56 30.2105 4.56C29.3439 4.56 28.5839 4.70667 27.9305 5C27.2905 5.29333 26.7505 5.70667 26.3105 6.24C25.8705 6.77333 25.5372 7.40667 25.3105 8.14C25.0972 8.87333 24.9905 9.68667 24.9905 10.58C24.9905 11.5 25.0972 12.3333 25.3105 13.08C25.5372 13.8133 25.8639 14.44 26.2905 14.96C26.7172 15.48 27.2372 15.88 27.8505 16.16C28.4772 16.44 29.1905 16.58 29.9905 16.58C30.8705 16.58 31.6039 16.5 32.1905 16.34C32.7905 16.1667 33.2439 15.9933 33.5505 15.82L33.9305 16.98C33.8372 17.0467 33.6772 17.1267 33.4505 17.22C33.2239 17.3 32.9372 17.3867 32.5905 17.48C32.2439 17.5733 31.8439 17.6467 31.3905 17.7C30.9372 17.7667 30.4305 17.8 29.8705 17.8ZM45.178 3.64H46.538V17.5H45.178V10.84H37.658V17.5H36.298V3.64H37.658V9.66H45.178V3.64ZM50.1457 17.5V3.64H58.1457V4.82H51.5057V9.64H57.4257V10.8H51.5057V16.32H58.6657V17.5H50.1457ZM66.6674 17.8C65.7741 17.8 64.9408 17.64 64.1674 17.32C63.4074 17 62.7408 16.5333 62.1674 15.92C61.6074 15.3067 61.1608 14.5533 60.8274 13.66C60.5074 12.7533 60.3474 11.72 60.3474 10.56C60.3474 9.4 60.5208 8.37333 60.8674 7.48C61.2274 6.57333 61.7008 5.81333 62.2874 5.2C62.8741 4.58667 63.5541 4.12667 64.3274 3.82C65.1008 3.5 65.9074 3.34 66.7474 3.34C67.2674 3.34 67.7408 3.37333 68.1674 3.44C68.5941 3.50667 68.9674 3.59333 69.2874 3.7C69.6074 3.79333 69.8808 3.89333 70.1074 4C70.3341 4.09333 70.5074 4.18 70.6274 4.26L70.1874 5.44C69.8541 5.24 69.4274 5.04667 68.9074 4.86C68.4008 4.66 67.7674 4.56 67.0074 4.56C66.1408 4.56 65.3808 4.70667 64.7274 5C64.0874 5.29333 63.5474 5.70667 63.1074 6.24C62.6674 6.77333 62.3341 7.40667 62.1074 8.14C61.8941 8.87333 61.7874 9.68667 61.7874 10.58C61.7874 11.5 61.8941 12.3333 62.1074 13.08C62.3341 13.8133 62.6608 14.44 63.0874 14.96C63.5141 15.48 64.0341 15.88 64.6474 16.16C65.2741 16.44 65.9874 16.58 66.7874 16.58C67.6674 16.58 68.4008 16.5 68.9874 16.34C69.5874 16.1667 70.0408 15.9933 70.3474 15.82L70.7274 16.98C70.6341 17.0467 70.4741 17.1267 70.2474 17.22C70.0208 17.3 69.7341 17.3867 69.3874 17.48C69.0408 17.5733 68.6408 17.6467 68.1874 17.7C67.7341 17.7667 67.2274 17.8 66.6674 17.8ZM81.5549 17.5C81.1016 16.8067 80.5883 16.12 80.0149 15.44C79.4549 14.76 78.8616 14.12 78.2349 13.52C77.6083 12.92 76.9683 12.3733 76.3149 11.88C75.6749 11.3867 75.0549 10.9733 74.4549 10.64V17.5H73.0949V3.64H74.4549V10.1C74.9616 9.64667 75.5216 9.12667 76.1349 8.54C76.7616 7.94 77.3749 7.34 77.9749 6.74C78.5883 6.14 79.1616 5.56667 79.6949 5.02C80.2283 4.47333 80.6549 4.01333 80.9749 3.64H82.6149C82.2283 4.05333 81.7616 4.54667 81.2149 5.12C80.6683 5.68 80.0883 6.26 79.4749 6.86C78.8616 7.46 78.2483 8.05333 77.6349 8.64C77.0349 9.21333 76.4949 9.72 76.0149 10.16C76.4016 10.4 76.8149 10.7 77.2549 11.06C77.7083 11.4067 78.1616 11.7933 78.6149 12.22C79.0816 12.6333 79.5349 13.0733 79.9749 13.54C80.4283 13.9933 80.8483 14.4533 81.2349 14.92C81.6349 15.3867 81.9883 15.84 82.2949 16.28C82.6149 16.72 82.8749 17.1267 83.0749 17.5H81.5549ZM88.5676 3.52C90.5276 3.52 91.9876 3.89333 92.9476 4.64C93.9076 5.38667 94.3876 6.44667 94.3876 7.82C94.3876 8.60667 94.2476 9.28 93.9676 9.84C93.6876 10.3867 93.2876 10.8333 92.7676 11.18C92.2476 11.5133 91.6076 11.76 90.8476 11.92C90.1009 12.0667 89.2542 12.14 88.3076 12.14H86.4276V17.5H85.0676V3.9C85.5476 3.76667 86.1076 3.67333 86.7476 3.62C87.4009 3.55333 88.0076 3.52 88.5676 3.52ZM88.6276 4.7C88.1209 4.7 87.6876 4.72 87.3276 4.76C86.9809 4.78667 86.6809 4.81333 86.4276 4.84V10.96H88.1476C88.8809 10.96 89.5409 10.92 90.1276 10.84C90.7276 10.7467 91.2342 10.5867 91.6476 10.36C92.0742 10.12 92.4009 9.79333 92.6276 9.38C92.8542 8.96667 92.9676 8.44 92.9676 7.8C92.9676 7.18667 92.8409 6.68 92.5876 6.28C92.3476 5.88 92.0209 5.56667 91.6076 5.34C91.2076 5.1 90.7476 4.93333 90.2276 4.84C89.7076 4.74667 89.1742 4.7 88.6276 4.7ZM109.344 10.56C109.344 11.7467 109.17 12.7933 108.824 13.7C108.477 14.6067 108.004 15.3667 107.404 15.98C106.817 16.58 106.13 17.0333 105.344 17.34C104.557 17.6467 103.724 17.8 102.844 17.8C101.964 17.8 101.13 17.6467 100.344 17.34C99.5568 17.0333 98.8635 16.58 98.2635 15.98C97.6768 15.3667 97.2102 14.6067 96.8635 13.7C96.5168 12.7933 96.3435 11.7467 96.3435 10.56C96.3435 9.37333 96.5168 8.33333 96.8635 7.44C97.2102 6.53333 97.6768 5.78 98.2635 5.18C98.8635 4.56667 99.5568 4.10667 100.344 3.8C101.13 3.49333 101.964 3.34 102.844 3.34C103.724 3.34 104.557 3.49333 105.344 3.8C106.13 4.10667 106.817 4.56667 107.404 5.18C108.004 5.78 108.477 6.53333 108.824 7.44C109.17 8.33333 109.344 9.37333 109.344 10.56ZM107.904 10.56C107.904 9.62667 107.784 8.79333 107.544 8.06C107.304 7.31333 106.964 6.68 106.524 6.16C106.084 5.64 105.55 5.24667 104.924 4.98C104.31 4.7 103.617 4.56 102.844 4.56C102.07 4.56 101.37 4.7 100.744 4.98C100.13 5.24667 99.6035 5.64 99.1635 6.16C98.7235 6.68 98.3835 7.31333 98.1435 8.06C97.9035 8.79333 97.7835 9.62667 97.7835 10.56C97.7835 11.4933 97.9035 12.3333 98.1435 13.08C98.3835 13.8133 98.7235 14.44 99.1635 14.96C99.6035 15.48 100.13 15.88 100.744 16.16C101.37 16.44 102.07 16.58 102.844 16.58C103.617 16.58 104.31 16.44 104.924 16.16C105.55 15.88 106.084 15.48 106.524 14.96C106.964 14.44 107.304 13.8133 107.544 13.08C107.784 12.3333 107.904 11.4933 107.904 10.56ZM112.392 3.64H113.752V17.5H112.392V3.64ZM126.793 17.5C126.539 17.0333 126.213 16.4867 125.813 15.86C125.426 15.2333 124.999 14.5667 124.533 13.86C124.066 13.14 123.573 12.4067 123.053 11.66C122.533 10.9 122.013 10.1667 121.493 9.46C120.986 8.74 120.486 8.06667 119.993 7.44C119.513 6.81333 119.079 6.27333 118.693 5.82V17.5H117.353V3.64H118.433C119.113 4.4 119.839 5.28 120.613 6.28C121.399 7.26667 122.166 8.28 122.913 9.32C123.659 10.3467 124.353 11.3533 124.993 12.34C125.646 13.3267 126.179 14.1867 126.593 14.92V3.64H127.933V17.5H126.793ZM140.332 3.64V4.82H135.892V17.5H134.532V4.82H130.092V3.64H140.332ZM43.7669 30.52C44.1535 30.4133 44.6535 30.2933 45.2669 30.16C45.8935 30.0267 46.7002 29.96 47.6869 29.96C48.9935 29.96 49.9402 30.34 50.5269 31.1C50.5935 31.0467 50.7202 30.96 50.9069 30.84C51.1069 30.7067 51.3535 30.5733 51.6469 30.44C51.9402 30.3067 52.2802 30.1933 52.6669 30.1C53.0669 30.0067 53.5069 29.96 53.9869 29.96C54.7735 29.96 55.4069 30.08 55.8869 30.32C56.3802 30.5467 56.7602 30.8733 57.0269 31.3C57.2935 31.7133 57.4735 32.2133 57.5669 32.8C57.6602 33.3867 57.7069 34.0267 57.7069 34.72V40.5H56.4069V35.14C56.4069 34.46 56.3735 33.8733 56.3069 33.38C56.2535 32.8733 56.1335 32.46 55.9469 32.14C55.7735 31.8067 55.5202 31.56 55.1869 31.4C54.8535 31.2267 54.4202 31.14 53.8869 31.14C53.4869 31.14 53.1202 31.18 52.7869 31.26C52.4669 31.3267 52.1869 31.4133 51.9469 31.52C51.7069 31.6267 51.5069 31.7333 51.3469 31.84C51.2002 31.9467 51.0935 32.0267 51.0269 32.08C51.1469 32.4267 51.2335 32.82 51.2869 33.26C51.3535 33.6867 51.3869 34.14 51.3869 34.62V40.5H50.0869V35.14C50.0869 34.46 50.0535 33.8733 49.9869 33.38C49.9335 32.8733 49.8135 32.46 49.6269 32.14C49.4402 31.8067 49.1735 31.56 48.8269 31.4C48.4935 31.2267 48.0469 31.14 47.4869 31.14C46.8602 31.14 46.3269 31.1733 45.8869 31.24C45.4602 31.3067 45.1869 31.3667 45.0669 31.42V40.5H43.7669V30.52ZM64.2925 39.56C64.7992 39.56 65.2392 39.5467 65.6125 39.52C65.9992 39.48 66.3258 39.4333 66.5925 39.38V35.74C66.4458 35.6733 66.2125 35.6067 65.8925 35.54C65.5725 35.46 65.1325 35.42 64.5725 35.42C64.2525 35.42 63.9192 35.4467 63.5725 35.5C63.2258 35.54 62.9058 35.64 62.6125 35.8C62.3192 35.9467 62.0792 36.1533 61.8925 36.42C61.7058 36.6867 61.6125 37.04 61.6125 37.48C61.6125 37.8667 61.6725 38.1933 61.7925 38.46C61.9258 38.7267 62.1058 38.94 62.3325 39.1C62.5725 39.26 62.8525 39.38 63.1725 39.46C63.5058 39.5267 63.8792 39.56 64.2925 39.56ZM64.1725 29.92C64.8525 29.92 65.4258 30.02 65.8925 30.22C66.3725 30.4067 66.7592 30.6733 67.0525 31.02C67.3458 31.3533 67.5592 31.7533 67.6925 32.22C67.8258 32.6867 67.8925 33.1933 67.8925 33.74V40.26C67.7592 40.3 67.5658 40.3467 67.3125 40.4C67.0592 40.44 66.7658 40.4867 66.4325 40.54C66.0992 40.5933 65.7258 40.6333 65.3125 40.66C64.9125 40.7 64.4992 40.72 64.0725 40.72C63.5258 40.72 63.0192 40.66 62.5525 40.54C62.0992 40.42 61.6992 40.2333 61.3525 39.98C61.0192 39.7133 60.7525 39.38 60.5525 38.98C60.3658 38.5667 60.2725 38.0667 60.2725 37.48C60.2725 36.92 60.3792 36.44 60.5925 36.04C60.8058 35.64 61.1058 35.3133 61.4925 35.06C61.8792 34.7933 62.3392 34.6 62.8725 34.48C63.4058 34.36 63.9858 34.3 64.6125 34.3C64.7992 34.3 64.9925 34.3133 65.1925 34.34C65.4058 34.3533 65.6058 34.38 65.7925 34.42C65.9925 34.4467 66.1592 34.48 66.2925 34.52C66.4392 34.5467 66.5392 34.5733 66.5925 34.6V33.96C66.5925 33.6 66.5658 33.2533 66.5125 32.92C66.4592 32.5733 66.3392 32.2667 66.1525 32C65.9792 31.72 65.7258 31.5 65.3925 31.34C65.0725 31.1667 64.6458 31.08 64.1125 31.08C63.3525 31.08 62.7858 31.1333 62.4125 31.24C62.0392 31.3467 61.7658 31.4333 61.5925 31.5L61.4125 30.36C61.6392 30.2533 61.9858 30.1533 62.4525 30.06C62.9325 29.9667 63.5058 29.92 64.1725 29.92ZM71.2083 30.52C71.5949 30.4133 72.1149 30.2933 72.7683 30.16C73.4216 30.0267 74.2216 29.96 75.1683 29.96C75.9549 29.96 76.6083 30.0733 77.1283 30.3C77.6616 30.5267 78.0816 30.8533 78.3883 31.28C78.7083 31.6933 78.9349 32.1933 79.0683 32.78C79.2016 33.3667 79.2683 34.0133 79.2683 34.72V40.5H77.9683V35.14C77.9683 34.4067 77.9149 33.7867 77.8083 33.28C77.7149 32.7733 77.5483 32.36 77.3083 32.04C77.0816 31.72 76.7749 31.4933 76.3883 31.36C76.0149 31.2133 75.5416 31.14 74.9683 31.14C74.3549 31.14 73.8216 31.1733 73.3683 31.24C72.9283 31.3067 72.6416 31.3667 72.5083 31.42V40.5H71.2083V30.52ZM85.855 39.56C86.3617 39.56 86.8017 39.5467 87.175 39.52C87.5617 39.48 87.8883 39.4333 88.155 39.38V35.74C88.0083 35.6733 87.775 35.6067 87.455 35.54C87.135 35.46 86.695 35.42 86.135 35.42C85.815 35.42 85.4817 35.4467 85.135 35.5C84.7883 35.54 84.4683 35.64 84.175 35.8C83.8817 35.9467 83.6417 36.1533 83.455 36.42C83.2683 36.6867 83.175 37.04 83.175 37.48C83.175 37.8667 83.235 38.1933 83.355 38.46C83.4883 38.7267 83.6683 38.94 83.895 39.1C84.135 39.26 84.415 39.38 84.735 39.46C85.0683 39.5267 85.4417 39.56 85.855 39.56ZM85.735 29.92C86.415 29.92 86.9883 30.02 87.455 30.22C87.935 30.4067 88.3217 30.6733 88.615 31.02C88.9083 31.3533 89.1217 31.7533 89.255 32.22C89.3883 32.6867 89.455 33.1933 89.455 33.74V40.26C89.3217 40.3 89.1283 40.3467 88.875 40.4C88.6217 40.44 88.3283 40.4867 87.995 40.54C87.6617 40.5933 87.2883 40.6333 86.875 40.66C86.475 40.7 86.0617 40.72 85.635 40.72C85.0883 40.72 84.5817 40.66 84.115 40.54C83.6617 40.42 83.2617 40.2333 82.915 39.98C82.5817 39.7133 82.315 39.38 82.115 38.98C81.9283 38.5667 81.835 38.0667 81.835 37.48C81.835 36.92 81.9417 36.44 82.155 36.04C82.3683 35.64 82.6683 35.3133 83.055 35.06C83.4417 34.7933 83.9017 34.6 84.435 34.48C84.9683 34.36 85.5483 34.3 86.175 34.3C86.3617 34.3 86.555 34.3133 86.755 34.34C86.9683 34.3533 87.1683 34.38 87.355 34.42C87.555 34.4467 87.7217 34.48 87.855 34.52C88.0017 34.5467 88.1017 34.5733 88.155 34.6V33.96C88.155 33.6 88.1283 33.2533 88.075 32.92C88.0217 32.5733 87.9017 32.2667 87.715 32C87.5417 31.72 87.2883 31.5 86.955 31.34C86.635 31.1667 86.2083 31.08 85.675 31.08C84.915 31.08 84.3483 31.1333 83.975 31.24C83.6017 31.3467 83.3283 31.4333 83.155 31.5L82.975 30.36C83.2017 30.2533 83.5483 30.1533 84.015 30.06C84.495 29.9667 85.0683 29.92 85.735 29.92ZM99.5108 39.3C99.4308 39.3667 99.3108 39.4467 99.1508 39.54C98.9908 39.62 98.7908 39.7067 98.5508 39.8C98.3241 39.8933 98.0574 39.9733 97.7508 40.04C97.4574 40.0933 97.1241 40.12 96.7508 40.12C96.1508 40.12 95.5708 40.0267 95.0108 39.84C94.4508 39.6533 93.9574 39.36 93.5308 38.96C93.1174 38.56 92.7841 38.0467 92.5308 37.42C92.2774 36.78 92.1508 36.0067 92.1508 35.1C92.1508 34.3667 92.2641 33.6867 92.4908 33.06C92.7174 32.4333 93.0374 31.8933 93.4508 31.44C93.8774 30.9733 94.3908 30.6133 94.9908 30.36C95.6041 30.0933 96.2908 29.96 97.0508 29.96C98.0108 29.96 98.7774 30.0267 99.3508 30.16C99.9374 30.28 100.417 30.4 100.791 30.52V39.96C100.791 41.5067 100.391 42.6067 99.5908 43.26C98.7908 43.9267 97.5841 44.26 95.9708 44.26C95.3041 44.26 94.6974 44.2067 94.1508 44.1C93.6174 44.0067 93.1574 43.8933 92.7708 43.76L93.0308 42.58C93.3508 42.7267 93.7841 42.8533 94.3308 42.96C94.8908 43.0667 95.4508 43.12 96.0108 43.12C97.2374 43.12 98.1241 42.88 98.6708 42.4C99.2308 41.9333 99.5108 41.1267 99.5108 39.98V39.3ZM99.4908 31.42C99.2641 31.3533 98.9708 31.2933 98.6108 31.24C98.2508 31.1733 97.7374 31.14 97.0708 31.14C96.5108 31.14 96.0108 31.24 95.5708 31.44C95.1441 31.6267 94.7774 31.9 94.4708 32.26C94.1641 32.6067 93.9308 33.0267 93.7708 33.52C93.6108 34 93.5308 34.5333 93.5308 35.12C93.5308 35.8 93.6241 36.3867 93.8108 36.88C93.9974 37.36 94.2374 37.7533 94.5308 38.06C94.8374 38.3667 95.1841 38.5933 95.5708 38.74C95.9574 38.8733 96.3508 38.94 96.7508 38.94C97.3374 38.94 97.8708 38.8533 98.3508 38.68C98.8441 38.5067 99.2241 38.3067 99.4908 38.08V31.42ZM103.616 35.32C103.616 34.4133 103.742 33.6267 103.996 32.96C104.262 32.28 104.602 31.7133 105.016 31.26C105.442 30.8067 105.922 30.4733 106.456 30.26C107.002 30.0333 107.562 29.92 108.136 29.92C109.402 29.92 110.409 30.3333 111.156 31.16C111.916 31.9867 112.296 33.26 112.296 34.98C112.296 35.0867 112.289 35.1933 112.276 35.3C112.276 35.4067 112.269 35.5067 112.256 35.6H104.996C105.036 36.8667 105.349 37.84 105.936 38.52C106.522 39.2 107.456 39.54 108.736 39.54C109.442 39.54 110.002 39.4733 110.416 39.34C110.829 39.2067 111.129 39.0933 111.316 39L111.556 40.12C111.369 40.2267 111.016 40.3533 110.496 40.5C109.989 40.6467 109.389 40.72 108.696 40.72C107.789 40.72 107.016 40.5867 106.376 40.32C105.736 40.0533 105.209 39.68 104.796 39.2C104.382 38.72 104.082 38.1533 103.896 37.5C103.709 36.8333 103.616 36.1067 103.616 35.32ZM110.956 34.5C110.929 33.42 110.676 32.58 110.196 31.98C109.716 31.38 109.036 31.08 108.156 31.08C107.689 31.08 107.269 31.1733 106.896 31.36C106.536 31.5467 106.216 31.8 105.936 32.12C105.669 32.4267 105.456 32.7867 105.296 33.2C105.149 33.6133 105.062 34.0467 105.036 34.5H110.956ZM118.713 29.96C119.139 29.96 119.539 29.9933 119.913 30.06C120.299 30.1267 120.566 30.1933 120.713 30.26L120.453 31.38C120.346 31.3267 120.126 31.2733 119.793 31.22C119.473 31.1533 119.046 31.12 118.513 31.12C117.953 31.12 117.499 31.16 117.153 31.24C116.819 31.32 116.599 31.3867 116.493 31.44V40.5H115.193V30.64C115.526 30.4933 115.986 30.3467 116.573 30.2C117.159 30.04 117.873 29.96 118.713 29.96Z" fill="#4C5866"/>
<rect x="146.5" y="13.5" width="31" height="16" rx="8" stroke="#4C5866"/>
<circle cx="191.5" cy="21.5" r="8" stroke="#4C5866"/>
</svg>
