<svg width="30" height="30" viewBox="0 0 30 30" fill="none" xmlns="http://www.w3.org/2000/svg">
<path d="M26.66 2.91667V20.4167H8.88667V2.91667H26.66ZM26.66 0H8.88667C7.25744 0 5.92444 1.3125 5.92444 2.91667V20.4167C5.92444 22.0208 7.25744 23.3333 8.88667 23.3333H26.66C28.2892 23.3333 29.6222 22.0208 29.6222 20.4167V2.91667C29.6222 1.3125 28.2892 0 26.66 0ZM15.5072 17.5L10.3678 12.3958L12.4413 10.3396L15.5072 13.3729L23.1053 5.83333L25.1789 7.88958L15.5072 17.5ZM2.96222 5.83333H0V26.25C0 27.8542 1.333 29.1667 2.96222 29.1667H23.6978V26.25H2.96222V5.83333Z" fill="#567AFF"/>
</svg>
